<?xml version="1.0" encoding="utf-8"?>
<!-- Generator: Adobe Illustrator 19.0.0, SVG Export Plug-In . SVG Version: 6.00 Build 0)  -->
<svg version="1.1" id="Ebene_1" xmlns="http://www.w3.org/2000/svg" xmlns:xlink="http://www.w3.org/1999/xlink" x="0px" y="0px"
	 viewBox="0 0 100 100" style="enable-background:new 0 0 100 100;" xml:space="preserve">
<style type="text/css">
	.st0{fill:#5B92CD;}
	.st1{fill:#FFFFFF;}
	.st2{fill:#EA5154;}
	.st3{fill:none;stroke:#008571;stroke-width:5;stroke-miterlimit:10;}
</style>
<g id="XMLID_3_">
	<g id="XMLID_38_">
		<circle id="XMLID_82_" class="st0" cx="35.8" cy="40.9" r="3.4"/>
	</g>
	<g id="XMLID_37_">
		<path id="XMLID_80_" class="st0" d="M41.3,50.1c0-2.2-1.2-4.2-2.9-5.1c-0.3-0.1-0.6-0.1-0.8,0c-0.5,0.3-1.1,0.5-1.7,0.5
			c-0.6,0-1.2-0.2-1.7-0.5c-0.3-0.2-0.6-0.2-0.8,0c-1.7,0.9-2.9,2.9-2.9,5.1l-1.6,22.7c0,0.6,0.4,1,0.9,1H42c0.5,0,0.9-0.5,0.9-1
			L41.3,50.1z"/>
	</g>
	<g id="XMLID_36_">
		<path id="XMLID_78_" class="st0" d="M33.5,77.8h-0.2c-0.5,0-1-0.4-1-1v-3.1c0-0.5,0.4-1,1-1h0.2c0.5,0,1,0.4,1,1v3.1
			C34.5,77.3,34.1,77.8,33.5,77.8z"/>
	</g>
	<g id="XMLID_35_">
		<path id="XMLID_76_" class="st0" d="M38.1,77.8h-0.2c-0.5,0-0.9-0.4-0.9-0.9v-3.3c0-0.5,0.4-0.9,0.9-0.9h0.2
			c0.5,0,0.9,0.4,0.9,0.9v3.3C39,77.4,38.6,77.8,38.1,77.8z"/>
	</g>
	<g id="XMLID_34_">
		<circle id="XMLID_74_" class="st0" cx="49.1" cy="60.7" r="1.8"/>
	</g>
	<g id="XMLID_33_">
		<path id="XMLID_72_" class="st0" d="M51.9,64.7c0-0.8-0.2-1.5-1.1-1.9c-0.1-0.1-0.7,0-0.9,0c-0.3,0.1-0.6,0.2-0.9,0.2
			c-0.3,0-0.6-0.1-0.9-0.2c-0.1-0.1-0.7-0.1-0.9,0c-0.9,0.3-1.1,1.1-1.1,1.9l-0.4,8.4c0,0.2,0.2,0.4,0.5,0.4h5.7
			c0.3,0,0.5-0.2,0.5-0.4L51.9,64.7z"/>
	</g>
	<g id="XMLID_32_">
		<path id="XMLID_48_" class="st0" d="M48.3,77.9c-0.3,0-0.5-0.2-0.5-0.5v-4.5c0-0.3,0.2-0.5,0.5-0.5s0.5,0.2,0.5,0.5v4.5
			C48.8,77.6,48.6,77.9,48.3,77.9z"/>
	</g>
	<g id="XMLID_31_">
		<path id="XMLID_47_" class="st0" d="M50,77.9c-0.3,0-0.5-0.2-0.5-0.5v-4.5c0-0.3,0.2-0.5,0.5-0.5c0.3,0,0.5,0.2,0.5,0.5v4.5
			C50.6,77.6,50.3,77.9,50,77.9z"/>
	</g>
	<g id="XMLID_30_">
		<path id="XMLID_46_" class="st0" d="M55.3,67.6c-0.1,0-0.3,0-0.4-0.1l-4.2-3.8c-0.2-0.2-0.2-0.5,0-0.7c0.2-0.2,0.5-0.2,0.7,0
			l4.2,3.8c0.2,0.2,0.2,0.5,0,0.7C55.6,67.6,55.4,67.6,55.3,67.6z"/>
	</g>
	<g id="XMLID_29_">
		<path id="XMLID_45_" class="st0" d="M47.1,64.4c-0.2,0-0.3-0.1-0.4-0.2l-3.1-4.6c-0.2-0.2-0.1-0.6,0.1-0.7
			c0.2-0.2,0.6-0.1,0.7,0.1l3.1,4.6c0.2,0.2,0.1,0.6-0.1,0.7C47.3,64.4,47.2,64.4,47.1,64.4z"/>
	</g>
	<g id="XMLID_28_">
		<path id="XMLID_44_" class="st0" d="M31.9,49.5c-0.3,0-0.6-0.1-0.9-0.3l-8.6-5.7c-0.7-0.5-0.9-1.5-0.4-2.2
			c0.5-0.7,1.5-0.9,2.2-0.4l8.6,5.7c0.7,0.5,0.9,1.5,0.4,2.2C33,49.3,32.5,49.5,31.9,49.5z"/>
	</g>
	<g id="XMLID_27_">
		<path id="XMLID_43_" class="st0" d="M23.3,42.8c-0.3,0-0.7-0.2-0.9-0.4c-0.3-0.5-0.2-1.1,0.3-1.5l8.5-5.9c0.5-0.3,1.1-0.2,1.5,0.3
			c0.3,0.5,0.2,1.1-0.3,1.5l-8.5,5.9C23.8,42.7,23.6,42.8,23.3,42.8z"/>
	</g>
	<g id="XMLID_26_">
		<path id="XMLID_42_" class="st0" d="M44.4,60.1c-0.6,0-1.1-0.3-1.4-0.9l-5.1-10.6c-0.4-0.8-0.1-1.7,0.7-2.1
			c0.8-0.4,1.7-0.1,2.1,0.7l5.1,10.6c0.4,0.8,0.1,1.7-0.7,2.1C44.9,60,44.6,60.1,44.4,60.1z"/>
	</g>
	<g id="XMLID_23_">
		<path id="XMLID_7_" class="st0" d="M41.9,26.9h-3.4v0c0-0.9-0.7-1.6-1.6-1.6h-2.3c-0.9,0-1.6,0.7-1.6,1.6v0h-3.4
			c-1.4,0-2.5,1.1-2.5,2.5v7c0,1.4,1.1,2.5,2.5,2.5h2.1c0.7-1.5,2.2-2.5,3.9-2.5c1.7,0,3.2,1,3.9,2.5h2.1c1.4,0,2.5-1.1,2.5-2.5v-7
			C44.4,28.1,43.3,26.9,41.9,26.9z M33.8,26.9c0.2-0.6,0.8-1,1.4-1h1c0.6,0,1.2,0.4,1.4,1H33.8z"/>
	</g>
</g>
<g id="XMLID_20_">
	<path id="XMLID_41_" class="st1" d="M41.3,39.9c-0.3,0-0.5-0.2-0.5-0.5V26.6c0-0.3,0.2-0.5,0.5-0.5c0.3,0,0.5,0.2,0.5,0.5v12.8
		C41.8,39.6,41.5,39.9,41.3,39.9z"/>
</g>
<g id="XMLID_18_">
	<path id="XMLID_40_" class="st1" d="M30.4,40.2c-0.3,0-0.5-0.2-0.5-0.5V26.9c0-0.3,0.2-0.5,0.5-0.5s0.5,0.2,0.5,0.5v12.8
		C30.9,40,30.7,40.2,30.4,40.2z"/>
</g>
<g id="XMLID_1_">
	<path id="XMLID_16_" class="st2" d="M74.7,37c0.4,0,0.9,0,1.4,0.1c3,0.3,6.5,3.1,7,8.4v1.8c-0.4,5.1-4.2,11.4-15.5,19.2
		c-11.2-7.9-15.1-14.1-15.5-19.2v-1.8c0.4-5.3,3.9-8.1,7-8.4c0.5,0,1-0.1,1.4-0.1c3.5,0,5.2,1.5,7.1,3.8C69.5,38.5,71.2,37,74.7,37
		 M74.7,40.4"/>
</g>
<polygon id="XMLID_4_" class="st3" points="27.5,89.6 5,50.6 27.5,11.6 72.5,11.6 95,50.6 72.5,89.6 "/>
</svg>
